<?xml version="1.0" encoding="UTF-8"?>
<svg width="37px" height="38px" viewBox="0 0 37 38" version="1.1" xmlns="http://www.w3.org/2000/svg" xmlns:xlink="http://www.w3.org/1999/xlink">
    <!-- Generator: Sketch 57.1 (83088) - https://sketch.com -->
    <title>Artboard</title>
    <desc>Created with Sketch.</desc>
    <g id="Artboard" stroke="none" stroke-width="1" fill="none" fill-rule="evenodd">
        <rect fill="#FFFFFF" x="0" y="0" width="37" height="38"></rect>
        <g id="Group-2-Copy" transform="translate(-60.000000, 5.000000)" fill="#344C54" fill-rule="nonzero">
            <g id="linkedin-logo" transform="translate(64.000000, 0.000000)">
                <path d="M27.4574468,0 L1.54255319,0 C0.690755319,0 0,0.690755319 0,1.54255319 L0,27.4574468 C0,28.3092447 0.690755319,29 1.54255319,29 L27.4574468,29 C28.3095532,29 29,28.3092447 29,27.4574468 L29,1.54255319 C29,0.690755319 28.3095532,0 27.4574468,0 Z M8.149,25.9769043 L3.38312766,25.9769043 L3.38312766,10.6445426 L8.14869149,10.6445426 L8.149,25.9769043 L8.149,25.9769043 Z M5.76698936,8.54882979 C4.23955319,8.54882979 3.00304255,7.3107766 3.00304255,5.78519149 C3.00335106,4.26176596 4.24017021,3.02340426 5.76698936,3.02340426 C7.2907234,3.02340426 8.52846809,4.26114894 8.52846809,5.78519149 C8.52846809,7.3107766 7.2907234,8.54882979 5.76698936,8.54882979 Z M25.9969574,25.9765957 L21.2354043,25.9765957 L21.2354043,18.5208191 C21.2354043,16.7425638 21.2030106,14.455266 18.7583723,14.455266 C16.2801064,14.455266 15.8990957,16.3920957 15.8990957,18.3915532 L15.8990957,25.9765957 L11.1369255,25.9765957 L11.1369255,10.6445426 L15.7078191,10.6445426 L15.7078191,12.7393298 L15.7716809,12.7393298 C16.4081383,11.5339787 17.9630319,10.2629149 20.2802553,10.2629149 C25.1056702,10.2629149 25.9966489,13.4387234 25.9966489,17.5662872 L25.9966489,25.9765957 L25.9969574,25.9765957 Z" id="Shape"></path>
            </g>
        </g>
    </g>
</svg>