<?xml version="1.0" encoding="UTF-8"?>
<svg width="37px" height="38px" viewBox="0 0 37 38" version="1.1" xmlns="http://www.w3.org/2000/svg" xmlns:xlink="http://www.w3.org/1999/xlink">
    <!-- Generator: Sketch 57.1 (83088) - https://sketch.com -->
    <title>Artboard Copy</title>
    <desc>Created with Sketch.</desc>
    <g id="Artboard-Copy" stroke="none" stroke-width="1" fill="none" fill-rule="evenodd">
        <rect fill="#FFFFFF" x="0" y="0" width="37" height="38"></rect>
        <g id="Group-2-Copy" transform="translate(4.000000, 5.000000)" fill="#344C54" fill-rule="nonzero">
            <g id="instagram-logo-(1)">
                <path d="M20.9968769,0 L8.00278005,0 C3.5900498,0 0,3.59022134 0,8.00295158 L0,20.9970484 C0,25.4099502 3.5900498,29 8.00278005,29 L20.9968769,29 C25.4099502,29 29,25.4097787 29,20.9970484 L29,8.00295158 C29,3.59022134 25.4099502,0 20.9968769,0 Z M26.427151,20.9970484 C26.427151,23.9911867 23.9911867,26.4269795 20.9970484,26.4269795 L8.00278005,26.4269795 C5.00881333,26.4269795 2.57302055,23.9911867 2.57302055,20.9970484 L2.57302055,8.00295158 C2.57302055,5.00898487 5.00881333,2.57302055 8.00278005,2.57302055 L20.9968769,2.57302055 C23.9910151,2.57302055 26.427151,5.00898487 26.427151,8.00295158 L26.427151,20.9970484 L26.427151,20.9970484 Z" id="Shape"></path>
                <path d="M14.5,7 C10.3644377,7 7,10.3645149 7,14.5001722 C7,18.6356572 10.3644377,22 14.5,22 C18.6355623,22 22,18.6356572 22,14.5001722 C22,10.3645149 18.6355623,7 14.5,7 Z M14.5,19.4173018 C11.7885821,19.4173018 9.58246677,17.2114802 9.58246677,14.5 C9.58246677,11.7883476 11.7884099,9.58235389 14.5,9.58235389 C17.2115901,9.58235389 19.4175332,11.7883476 19.4175332,14.5 C19.4175332,17.2114802 17.2114179,19.4173018 14.5,19.4173018 Z" id="Shape"></path>
                <path d="M22,5 C21.4745455,5 20.9583636,5.21272727 20.5872727,5.58545455 C20.2143636,5.95636364 20,6.47272727 20,7 C20,7.52563636 20.2145455,8.04181818 20.5872727,8.41454545 C20.9581818,8.78545455 21.4745455,9 22,9 C22.5272727,9 23.0418182,8.78545455 23.4145455,8.41454545 C23.7872727,8.04181818 24,7.52545455 24,7 C24,6.47272727 23.7872727,5.95636364 23.4145455,5.58545455 C23.0436364,5.21272727 22.5272727,5 22,5 Z" id="Path"></path>
            </g>
        </g>
    </g>
</svg>